#!OML:ASF X:\für Bonn\!DataBase\2005_08_12_Daniel\c3d\Daniel.ASF
:FULLY-SPECIFIED
:DEGREES
16
root 14.2638 16.7341 0.279134 158.539 -104.031 -165.853
lowerback 8.95185 -6.53404 -7.85885
upperback 3.82907 -9.54337 -3.90914
thorax -0.378148 -4.89058 1.0951
lowerneck 3.97488 4.56798 -1.08016
upperneck 11.3702 5.79011 -0.0881161
head 2.90977 2.68743 0.222588
rclavicle -9.19379e-015 4.05521e-014
rhumerus -50.9656 -8.7637 -85.2295
rradius 22.6864
rwrist 21.5514
rhand -14.949 12.8262
rfingers 7.12502
rthumb 11.2139 -16.8541
lclavicle -9.19379e-015 4.05521e-014
lhumerus -27.8535 22.9587 76.2817
lradius 39.6489
lwrist -1.91189
lhand -18.8793 -8.18504
lfingers 7.12502
lthumb 7.42168 21.6648
rfemur -31.6504 -9.5078 12.4404
rtibia 54.1286
rfoot -11.3359 1.77175
rtoes -11.5977
lfemur 3.47426 -11.3685 -29.6011
ltibia 40.9615
lfoot -36.8759 0.620108
ltoes -10.9487
17
root 14.1384 16.7323 0.276358 157.798 -104.16 -164.971
lowerback 8.7431 -6.66241 -8.05455
upperback 3.76906 -9.71005 -3.93348
thorax -0.285665 -4.97651 1.15733
lowerneck 4.02859 4.62336 -0.983767
upperneck 11.1999 5.88546 -0.306219
head 2.85244 2.73589 0.134552
rclavicle -5.1684e-014 -1.98785e-014
rhumerus -51.2861 -9.30304 -84.7849
rradius 22.2874
rwrist 22.0625
rhand -14.7417 12.8161
rfingers 7.12502
rthumb 11.4139 -16.8533
lclavicle -5.1684e-014 -1.98785e-014
lhumerus -27.5346 22.2146 76.7617
lradius 40.742
lwrist -1.36564
lhand -18.9045 -8.25474
lfingers 7.12502
lthumb 7.39732 21.5959
rfemur -31.9891 -8.65342 12.0634
rtibia 52.3803
rfoot -11.2485 0.722616
rtoes -11.806
lfemur 4.26442 -11.552 -29.9018
ltibia 40.1847
lfoot -36.9279 0.77762
ltoes -10.7805
18
root 14.012 16.7285 0.27323 157.195 -104.291 -164.203
lowerback 8.50668 -6.78717 -8.20894
upperback 3.70677 -9.86456 -3.9525
thorax -0.186481 -5.05606 1.19788
lowerneck 4.06774 4.66725 -0.916036
upperneck 11.0351 5.96283 -0.496765
head 2.79831 2.77526 0.0604505
rclavicle 3.07619e-014 7.95139e-015
rhumerus -51.5999 -9.81433 -84.3567
rradius 21.8856
rwrist 22.4527
rhand -14.5174 12.7976
rfingers 7.12502
rthumb 11.6302 -16.8596
lclavicle 3.07619e-014 7.95139e-015
lhumerus -27.2054 21.5191 77.2341
lradius 41.7912
lwrist -0.84833
lhand -18.974 -8.41505
lfingers 7.12502
lthumb 7.33028 21.438
rfemur -32.3322 -7.732 11.6642
rtibia 50.6711
rfoot -11.2201 -0.396964
rtoes -12.128
lfemur 5.01317 -11.7121 -30.1592
ltibia 39.4187
lfoot -36.9746 0.944624
ltoes -10.7616
19
root 13.8853 16.7221 0.270241 156.493 -104.426 -163.353
lowerback 8.29825 -6.90936 -8.40316
upperback 3.64045 -10.0209 -3.9555
thorax -0.0961558 -5.1366 1.27795
lowerneck 4.11481 4.71629 -0.88551
upperneck 10.8563 6.0461 -0.690276
head 2.73737 2.81641 -0.00862867
rclavicle -8.26944e-014 -1.27222e-014
rhumerus -51.9558 -10.197 -83.9479
rradius 21.5479
rwrist 22.7465
rhand -14.273 12.7211
rfingers 7.12502
rthumb 11.8658 -16.9227
lclavicle -8.26944e-014 -1.27222e-014
lhumerus -26.9097 20.9001 77.7081
lradius 42.8518
lwrist -0.337679
lhand -19.0516 -8.58936
lfingers 7.12502
lthumb 7.25531 21.2663
rfemur -32.6422 -6.74283 11.1915
rtibia 49.0165
rfoot -11.2212 -1.6027
rtoes -12.3336
lfemur 5.78215 -11.8631 -30.439
ltibia 38.6595
lfoot -37.0312 1.04451
ltoes -10.5617
20
root 13.758 16.7141 0.266562 155.77 -104.575 -162.47
lowerback 8.08978 -7.02619 -8.60351
upperback 3.56809 -10.1705 -3.96501
thorax -0.0118183 -5.21349 1.35345
lowerneck 4.16703 4.76267 -0.841313
upperneck 10.6843 6.12448 -0.875664
head 2.67843 2.85591 -0.0773521
rclavicle -4.96962e-016 -8.11041e-014
rhumerus -52.3359 -10.6739 -83.4428
rradius 21.2196
rwrist 23.1427
rhand -13.9681 12.6774
rfingers 7.12502
rthumb 12.1599 -16.9491
lclavicle -4.96962e-016 -8.11041e-014
lhumerus -26.603 20.2831 78.1643
lradius 43.8549
lwrist 0.169919
lhand -19.1162 -8.83486
lfingers 7.12502
lthumb 7.19296 21.0229
rfemur -32.9547 -5.6828 10.6558
rtibia 47.4359
rfoot -11.3456 -2.86591
rtoes -12.2178
lfemur 6.52363 -11.9792 -30.7157
ltibia 37.9116
lfoot -37.1053 1.14586
ltoes -10.4986
21
root 13.629 16.7055 0.262951 155.078 -104.732 -161.612
lowerback 7.86681 -7.15124 -8.79954
upperback 3.49638 -10.3276 -3.96287
thorax 0.084197 -5.29452 1.43504
lowerneck 4.20196 4.82007 -0.878932
upperneck 10.5141 6.21283 -1.01795
head 2.61921 2.89856 -0.118326
rclavicle 2.37051e-014 -5.56597e-015
rhumerus -52.7407 -11.1582 -82.8614
rradius 20.9298
rwrist 23.6022
rhand -13.6064 12.6065
rfingers 7.12502
rthumb 12.5086 -16.9991
lclavicle 2.37051e-014 -5.56597e-015
lhumerus -26.302 19.7645 78.6018
lradius 44.8084
lwrist 0.631757
lhand -19.2161 -9.14091
lfingers 7.12502
lthumb 7.09653 20.7201
rfemur -33.2503 -4.53599 10.0686
rtibia 45.9279
rfoot -11.6442 -4.20339
rtoes -11.7615
lfemur 7.28536 -12.0905 -30.986
ltibia 37.1202
lfoot -37.1377 1.23299
ltoes -10.3574
22
root 13.4998 16.6964 0.259033 154.353 -104.89 -160.72
lowerback 7.66131 -7.2712 -8.99232
upperback 3.41473 -10.4804 -3.97497
thorax 0.157476 -5.37226 1.5027
lowerneck 4.25378 4.88104 -0.915365
upperneck 10.3454 6.30098 -1.108
head 2.55588 2.94269 -0.143482
rclavicle 3.25013e-014 -3.18055e-015
rhumerus -53.1292 -11.7019 -82.245
rradius 20.5954
rwrist 24.0744
rhand -13.2019 12.5245
rfingers 7.12502
rthumb 12.8986 -17.0568
lclavicle 3.25013e-014 -3.18055e-015
lhumerus -26.0206 19.2429 78.9831
lradius 45.7142
lwrist 1.06959
lhand -19.3062 -9.4525
lfingers 7.12502
lthumb 7.00959 20.4114
rfemur -33.5727 -3.3267 9.42026
rtibia 44.5504
rfoot -12.1503 -5.57227
rtoes -11.4288
lfemur 8.04722 -12.1827 -31.2561
ltibia 36.3179
lfoot -37.1718 1.27612
ltoes -10.306
23
root 13.3689 16.6966 0.255671 153.622 -105.07 -159.811
lowerback 7.43251 -7.39097 -9.18013
upperback 3.34052 -10.6293 -4.00513
thorax 0.247464 -5.44899 1.54396
lowerneck 4.30369 4.94362 -0.958089
upperneck 10.1784 6.387 -1.14192
head 2.49132 2.98721 -0.149973
rclavicle 2.04102e-013 -2.38542e-015
rhumerus -53.499 -12.2707 -81.6294
rradius 20.2506
rwrist 24.512
rhand -12.7717 12.4728
rfingers 7.12502
rthumb 13.3133 -17.0819
lclavicle 2.04102e-013 -2.38542e-015
lhumerus -25.7198 18.7545 79.3446
lradius 46.573
lwrist 1.47823
lhand -19.4061 -9.78513
lfingers 7.12502
lthumb 6.91315 20.082
rfemur -33.8862 -2.05882 8.69771
rtibia 43.2895
rfoot -12.9198 -6.94951
rtoes -11.2391
lfemur 8.80774 -12.2554 -31.5234
ltibia 35.483
lfoot -37.1596 1.29904
ltoes -10.2154
24
root 13.2369 16.6878 0.250887 152.897 -105.239 -158.908
lowerback 7.21794 -7.51753 -9.3717
upperback 3.25186 -10.7892 -4.02895
thorax 0.318172 -5.52994 1.59594
lowerneck 4.36108 5.03783 -1.05337
upperneck 10.0254 6.5079 -1.0992
head 2.42558 3.04873 -0.123737
rclavicle 3.08116e-014 4.77083e-015
rhumerus -53.8866 -12.7464 -81.0646
rradius 19.9494
rwrist 24.9043
rhand -12.3315 12.4297
rfingers 7.12502
rthumb 13.7375 -17.0968
lclavicle 3.08116e-014 4.77083e-015
lhumerus -25.4617 18.3056 79.6579
lradius 47.3979
lwrist 1.84105
lhand -19.5059 -10.1697
lfingers 7.12502
lthumb 6.81684 19.7005
rfemur -34.2687 -0.676858 7.92149
rtibia 42.2179
rfoot -14.1662 -8.30026
rtoes -11.7012
lfemur 9.56364 -12.3262 -31.7844
ltibia 34.6695
lfoot -37.1661 1.30646
ltoes -10.1408
25
root 13.1032 16.6774 0.24616 152.181 -105.418 -158.029
lowerback 7.00504 -7.64722 -9.55054
upperback 3.18033 -10.9513 -4.06164
thorax 0.402767 -5.61311 1.62975
lowerneck 4.38852 5.12389 -1.10971
upperneck 9.87173 6.62185 -1.08046
head 2.36725 3.10788 -0.11084
rclavicle -1.51051e-013 -4.05521e-014
rhumerus -54.2245 -13.2253 -80.5096
rradius 19.634
rwrist 25.2818
rhand -11.9376 12.3923
rfingers 7.12502
rthumb 14.1171 -17.1081
lclavicle -1.51051e-013 -4.05521e-014
lhumerus -25.1963 17.8989 79.9334
lradius 48.1645
lwrist 2.09837
lhand -19.5832 -10.5347
lfingers 7.12502
lthumb 6.74217 19.3379
rfemur -34.6592 0.704206 7.10262
rtibia 41.3055
rfoot -15.7889 -9.52674
rtoes -12.8559
lfemur 10.3253 -12.3132 -32.0086
ltibia 33.8593
lfoot -37.1362 1.24522
ltoes -10.1699
